<svg width="47" height="47" viewBox="0 0 47 47" fill="none" xmlns="http://www.w3.org/2000/svg">
<g clip-path="url(#clip0_4617_276)">
<path d="M17.0201 35.6632C15.8801 33.5132 15.3001 31.1132 15.3501 28.6932C15.6301 24.0332 19.6401 20.4832 24.3001 20.7632C28.5701 21.0232 31.9701 24.4232 32.2301 28.6932C32.2301 29.1932 32.6301 29.5932 33.1301 29.5932C33.6301 29.5932 34.0301 29.1932 34.0301 28.6932C33.7701 23.0332 28.9701 18.6532 23.3101 18.9132C18.0201 19.1632 13.7801 23.3932 13.5301 28.6932C13.4901 31.4332 14.1401 34.1432 15.4401 36.5532C16.3901 38.3232 17.6201 39.9332 19.0801 41.3232C19.2501 41.4932 19.4801 41.5932 19.7201 41.5932C19.9601 41.5932 20.1901 41.5032 20.3401 41.3232C20.6901 40.9832 20.7001 40.4132 20.3601 40.0632C20.3601 40.0632 20.3601 40.0632 20.3501 40.0532C19.0101 38.7832 17.8801 37.3032 17.0201 35.6732V35.6632Z" fill="#D9D9D9"/>
<path d="M13.7302 10.1532C20.0202 6.7532 27.6002 6.7532 33.8802 10.1532C34.0102 10.2132 34.1502 10.2532 34.3002 10.2532C34.8002 10.2532 35.2102 9.8532 35.2102 9.3532C35.2102 9.0132 35.0202 8.7032 34.7202 8.5432C27.9002 4.8632 19.6802 4.8632 12.8702 8.5432C12.4202 8.7732 12.2502 9.3132 12.4702 9.7632C12.7002 10.2132 13.2402 10.3832 13.6902 10.1632C13.7102 10.1632 13.7202 10.1432 13.7402 10.1432L13.7302 10.1532Z" fill="#D9D9D9"/>
<path d="M23.7202 14.5332C17.9702 14.4832 12.7002 17.7032 10.1302 22.8432C9.28017 24.6732 8.86017 26.6732 8.89017 28.6932C8.89017 31.1432 9.34017 33.5632 10.2102 35.8432C10.3802 36.3132 10.9102 36.5532 11.3802 36.3732C11.8502 36.2032 12.0902 35.6732 11.9102 35.2032C11.1102 33.1232 10.7002 30.9132 10.7102 28.6832C10.6802 26.9332 11.0402 25.2032 11.7702 23.6132C14.0302 19.0932 18.6702 16.2632 23.7302 16.3232C30.9602 16.3232 36.8402 21.8632 36.8402 28.6832C36.7002 30.7632 34.9102 32.3332 32.8302 32.2032C30.9402 32.0832 29.4402 30.5732 29.3102 28.6832C29.1702 25.6032 26.5602 23.2232 23.4802 23.3732C20.6002 23.5032 18.3002 25.8132 18.1702 28.6832C18.1602 32.2332 19.5702 35.6332 22.0902 38.1232C23.9202 40.0032 26.2602 41.3232 28.8102 41.9232C28.8902 41.9532 28.9702 41.9632 29.0502 41.9632C29.5502 41.9632 29.9602 41.5732 29.9702 41.0832C29.9702 40.6632 29.7002 40.2932 29.2902 40.1932C27.0402 39.6632 24.9802 38.5032 23.3702 36.8532C21.2002 34.6932 19.9802 31.7532 19.9902 28.6932C20.1302 26.6132 21.9202 25.0432 24.0002 25.1732C25.8902 25.2932 27.3902 26.8032 27.5202 28.6932C27.6602 31.7732 30.2702 34.1532 33.3502 34.0032C36.2302 33.8732 38.5302 31.5632 38.6602 28.6932C38.6602 20.8832 31.9602 14.5232 23.7402 14.5232L23.7202 14.5332Z" fill="#D9D9D9"/>
<path d="M39.9001 18.2732C38.1401 15.7932 35.8201 13.7832 33.1201 12.3932C27.2401 9.46317 20.3301 9.47317 14.4601 12.4132C11.7501 13.8132 9.4201 15.8432 7.6701 18.3332C7.3801 18.7432 7.4801 19.3032 7.8801 19.5832C8.0301 19.6932 8.2201 19.7432 8.4001 19.7432C8.6901 19.7432 8.9701 19.6032 9.1401 19.3732C10.7201 17.1132 12.8301 15.2732 15.2801 14.0132C20.6301 11.3332 26.9301 11.3232 32.2901 13.9932C34.7301 15.2432 36.8401 17.0732 38.4201 19.3132C38.7101 19.7232 39.2801 19.8132 39.6901 19.5232C40.0901 19.2332 40.1901 18.6732 39.9001 18.2632V18.2732Z" fill="#D9D9D9"/>
<path d="M34.58 36.2632C33.96 36.3732 33.32 36.4332 32.69 36.4332C28.37 36.5832 24.75 33.2032 24.59 28.8832C24.59 28.8232 24.59 28.7632 24.59 28.6932C24.59 28.1932 24.19 27.7932 23.69 27.7932C23.19 27.7932 22.79 28.1932 22.79 28.6932C22.82 31.8932 24.43 34.8632 27.09 36.6332C28.75 37.7232 30.71 38.2832 32.7 38.2332C33.44 38.2332 34.18 38.1632 34.91 38.0332C35.4 37.9432 35.73 37.4732 35.64 36.9832C35.55 36.4932 35.08 36.1632 34.59 36.2532L34.58 36.2632Z" fill="#D9D9D9"/>
</g>
<defs>
<clipPath id="clip0_4617_276">
<rect width="32.57" height="36.18" fill="white" transform="translate(7.5 5.79321)"/>
</clipPath>
</defs>
</svg>
