<svg width="24" height="25" viewBox="0 0 24 25" fill="none" xmlns="http://www.w3.org/2000/svg">
<path d="M9.62095 1.02949C8.32225 1.29227 7.24619 2.0431 6.58359 3.15862C6.20193 3.79682 5.93689 4.64955 5.93689 5.23948V5.49691L4.97215 5.52372C3.84838 5.5559 3.55153 5.63099 2.95784 6.03321C2.41716 6.39254 2.06731 6.8484 1.85528 7.46515C1.78107 7.67431 1.48952 9.85707 0.874632 14.8393C0.392259 18.7329 0 22.0366 0 22.176C0 22.5514 0.137821 23.077 0.328649 23.4471C0.545982 23.8654 1.10257 24.4285 1.51603 24.6484C2.18923 25.0023 1.67505 24.9862 10.8825 24.9702L19.2154 24.9541L19.7349 24.8093C21.4258 24.3373 22.7351 23.2433 23.4613 21.688C24.3466 19.7894 24.1292 17.5531 22.8941 15.8583C22.5761 15.4186 21.9665 14.8286 21.5212 14.5229C21.1608 14.2762 20.4611 13.9276 20.1059 13.8257C19.9098 13.7667 19.8833 13.7346 19.8568 13.5629C19.8356 13.4557 19.6713 12.1096 19.4804 10.565C19.2525 8.7201 19.0988 7.65822 19.0299 7.45979C18.7383 6.61242 18.1128 5.99031 17.2594 5.68462C16.9254 5.56663 16.7717 5.54518 15.9236 5.52372L14.9642 5.49691L14.9323 5.08932C14.8369 3.89872 14.1584 2.64376 13.2096 1.91439C12.7855 1.58724 12.0275 1.21183 11.5557 1.08848C11.0787 0.970491 10.0874 0.938313 9.62095 1.02949ZM11.3278 2.22008C12.2342 2.45606 13.0612 3.15325 13.4852 4.03816C13.6602 4.39212 13.8351 5.07323 13.8351 5.37892V5.513H10.4426H7.05006V5.34674C7.05006 5.05178 7.21969 4.41894 7.39461 4.03816C7.87168 3.04063 8.85233 2.30589 9.93899 2.13964C10.3154 2.08064 10.9355 2.11819 11.3278 2.22008ZM5.93689 8.52167V10.3505L6.09062 10.506C6.34505 10.7581 6.77972 10.7044 6.95995 10.3934C7.03946 10.2593 7.05006 10.0287 7.05006 8.46804V6.69287H10.4426H13.8351V8.46804C13.8351 10.0287 13.8457 10.2593 13.9252 10.3934C14.1054 10.7044 14.5401 10.7581 14.7945 10.506L14.9482 10.3505V8.52167V6.69287H15.8229C16.5544 6.69287 16.7399 6.70896 16.9626 6.79477C17.3654 6.9503 17.6729 7.23454 17.8584 7.62068C18.0121 7.9371 18.0386 8.09263 18.3408 10.5543C18.5157 11.9862 18.6747 13.2465 18.6906 13.3538L18.7224 13.5576H18.2453C16.2681 13.5576 14.2962 14.7804 13.3792 16.5716C12.918 17.4833 12.7219 18.2824 12.7219 19.2639C12.7272 20.8942 13.3209 22.2779 14.4818 23.3988L14.9535 23.8546L8.70921 23.8439L2.46487 23.8278L2.14682 23.6777C1.75986 23.4953 1.51603 23.2647 1.3464 22.9322C1.06546 22.3744 1.02835 22.8035 1.9878 15.0592C2.84653 8.08726 2.86773 7.94782 3.02676 7.62068C3.20698 7.2399 3.51443 6.95566 3.90669 6.80013C4.11872 6.71432 4.30955 6.69823 5.05166 6.69287H5.93689V8.52167ZM19.4539 14.8233C20.249 15.0271 21.1025 15.5365 21.6538 16.1426C22.4595 17.0167 22.857 18.0357 22.8623 19.2156C22.8729 20.492 22.4118 21.629 21.5318 22.5032C20.5618 23.4739 19.2949 23.9244 17.9167 23.7956C16.3106 23.6455 14.9482 22.664 14.2644 21.1624C13.9994 20.5885 13.8934 20.1488 13.851 19.4838C13.7821 18.2288 14.2167 17.0543 15.0967 16.1211C15.7805 15.3971 16.5968 14.9466 17.5297 14.7643C18.0386 14.6677 18.9663 14.6945 19.4539 14.8233Z" fill="black"/>
<path d="M17.9856 17.1187C17.8372 17.2474 17.8372 17.2635 17.8107 17.966L17.7842 18.6793L17.0792 18.7061C16.3848 18.7329 16.3689 18.7329 16.2416 18.8831C16.0243 19.1405 16.0879 19.5696 16.3795 19.7412C16.4961 19.8109 16.6657 19.8324 17.1693 19.8324H17.8107V20.4759C17.8107 20.8299 17.8372 21.1731 17.869 21.2482C18.0174 21.57 18.5157 21.629 18.7701 21.3555C18.8867 21.2268 18.8973 21.1731 18.9132 20.5296L18.9345 19.8431L19.613 19.8216C20.2491 19.8056 20.3021 19.7948 20.4293 19.6768C20.6996 19.4194 20.6413 18.9153 20.3233 18.7651C20.2491 18.7329 19.9098 18.7061 19.5599 18.7061H18.9239V18.0572C18.9239 17.5477 18.9026 17.3761 18.8337 17.2581C18.6641 16.9631 18.24 16.8988 17.9856 17.1187Z" fill="black"/>
</svg>
