<svg width="64" height="64" viewBox="0 0 64 64" fill="none" xmlns="http://www.w3.org/2000/svg">
<rect width="64" height="64" rx="32" fill="#F3F4F6"/>
<path fill-rule="evenodd" clip-rule="evenodd" d="M32 28.207C30.5503 28.207 29.375 29.3823 29.375 30.832C29.375 32.2818 30.5503 33.457 32 33.457C33.4497 33.457 34.625 32.2818 34.625 30.832C34.625 29.3823 33.4497 28.207 32 28.207ZM27.625 30.832C27.625 28.4158 29.5838 26.457 32 26.457C34.4162 26.457 36.375 28.4158 36.375 30.832C36.375 33.2483 34.4162 35.207 32 35.207C29.5838 35.207 27.625 33.2483 27.625 30.832Z" fill="#374151"/>
<path fill-rule="evenodd" clip-rule="evenodd" d="M32 21.207C26.674 21.207 22.375 25.4685 22.375 30.7024C22.375 33.2737 23.8741 36.3192 25.9419 38.767C26.9641 39.9771 28.0921 41.0003 29.1786 41.714C30.283 42.4394 31.2605 42.7904 32 42.7904C32.7395 42.7904 33.717 42.4394 34.8214 41.714C35.9079 41.0003 37.0359 39.9771 38.0581 38.767C40.1259 36.3192 41.625 33.2737 41.625 30.7024C41.625 25.4685 37.326 21.207 32 21.207ZM20.625 30.7024C20.625 24.4815 25.728 19.457 32 19.457C38.272 19.457 43.375 24.4815 43.375 30.7024C43.375 33.8585 41.5928 37.2945 39.395 39.8963C38.2844 41.211 37.0335 42.3547 35.7821 43.1767C34.5486 43.9869 33.2292 44.5404 32 44.5404C30.7708 44.5404 29.4514 43.9869 28.2179 43.1767C26.9665 42.3547 25.7156 41.211 24.605 39.8963C22.4072 37.2945 20.625 33.8585 20.625 30.7024Z" fill="#374151"/>
</svg>
