<svg width="32" height="32" viewBox="0 0 32 32" fill="none" xmlns="http://www.w3.org/2000/svg">
<path fill-rule="evenodd" clip-rule="evenodd" d="M12.7822 6.47457C13.2923 5.70953 14.1509 5.25 15.0704 5.25H16.9296C17.8491 5.25 18.7077 5.70953 19.2178 6.47457L20.4014 8.25H25C25.4142 8.25 25.75 8.58579 25.75 9C25.75 9.41421 25.4142 9.75 25 9.75H7C6.58579 9.75 6.25 9.41421 6.25 9C6.25 8.58579 6.58579 8.25 7 8.25H11.5986L12.7822 6.47457ZM13.4014 8.25H18.5986L17.9697 7.30662C17.7379 6.95888 17.3476 6.75 16.9296 6.75H15.0704C14.6524 6.75 14.2621 6.95888 14.0303 7.30662L13.4014 8.25ZM9 11.25C9.41421 11.25 9.75 11.5858 9.75 12V22C9.75 23.7949 11.2051 25.25 13 25.25H19C20.7949 25.25 22.25 23.7949 22.25 22V12C22.25 11.5858 22.5858 11.25 23 11.25C23.4142 11.25 23.75 11.5858 23.75 12V22C23.75 24.6234 21.6234 26.75 19 26.75H13C10.3766 26.75 8.25 24.6234 8.25 22V12C8.25 11.5858 8.58579 11.25 9 11.25ZM14 14.25C14.4142 14.25 14.75 14.5858 14.75 15V21C14.75 21.4142 14.4142 21.75 14 21.75C13.5858 21.75 13.25 21.4142 13.25 21L13.25 15C13.25 14.5858 13.5858 14.25 14 14.25ZM18 14.25C18.4142 14.25 18.75 14.5858 18.75 15V21C18.75 21.4142 18.4142 21.75 18 21.75C17.5858 21.75 17.25 21.4142 17.25 21V15C17.25 14.5858 17.5858 14.25 18 14.25Z" fill="#4B5563"/>
</svg>