<svg width="24" height="24" viewBox="0 0 24 24" fill="none" xmlns="http://www.w3.org/2000/svg">
<path fill-rule="evenodd" clip-rule="evenodd" d="M8 1.25C8.41421 1.25 8.75 1.58579 8.75 2V2.75H15.25V2C15.25 1.58579 15.5858 1.25 16 1.25C16.4142 1.25 16.75 1.58579 16.75 2V2.75H17C19.6234 2.75 21.75 4.87665 21.75 7.5V10C21.75 10.4142 21.4142 10.75 21 10.75C20.5858 10.75 20.25 10.4142 20.25 10V7.5C20.25 5.70507 18.7949 4.25 17 4.25H16.75V5C16.75 5.41421 16.4142 5.75 16 5.75C15.5858 5.75 15.25 5.41421 15.25 5V4.25H8.75V5C8.75 5.41421 8.41421 5.75 8 5.75C7.58579 5.75 7.25 5.41421 7.25 5V4.25H7C5.20507 4.25 3.75 5.70507 3.75 7.5V18C3.75 19.7949 5.20507 21.25 7 21.25H9C9.41421 21.25 9.75 21.5858 9.75 22C9.75 22.4142 9.41421 22.75 9 22.75H7C4.37665 22.75 2.25 20.6234 2.25 18V7.5C2.25 4.87665 4.37665 2.75 7 2.75H7.25V2C7.25 1.58579 7.58579 1.25 8 1.25ZM14.6517 8.34833C14.9446 8.64123 14.9446 9.1161 14.6517 9.40899L13.0607 11L14.6517 12.591C14.9446 12.8839 14.9446 13.3588 14.6517 13.6517C14.3588 13.9446 13.8839 13.9446 13.591 13.6517L12 12.0607L10.409 13.6516C10.1161 13.9445 9.64126 13.9445 9.34837 13.6516C9.05547 13.3587 9.05547 12.8839 9.34837 12.591L10.9393 11L9.34837 9.40903C9.05547 9.11613 9.05547 8.64126 9.34837 8.34837C9.64126 8.05547 10.1161 8.05547 10.409 8.34837L12 9.93934L13.591 8.34833C13.8839 8.05544 14.3588 8.05544 14.6517 8.34833ZM17.6124 12.9599C18.5589 12.0134 20.0936 12.0134 21.0401 12.9599C21.9866 13.9064 21.9866 15.4411 21.0401 16.3876L16.0253 21.4024C15.8144 21.6133 15.5532 21.7669 15.2664 21.8487L10.9091 23.0909L12.1513 18.7336C12.2331 18.4468 12.3867 18.1856 12.5976 17.9747L17.6124 12.9599ZM19.9794 14.0206C19.6187 13.6598 19.0338 13.6598 18.673 14.0206L13.6582 19.0354C13.6278 19.0658 13.6056 19.1035 13.5938 19.1449L13.0909 20.9091L14.8551 20.4062C14.8965 20.3944 14.9342 20.3722 14.9646 20.3418L19.9794 15.327C20.3402 14.9662 20.3402 14.3813 19.9794 14.0206Z" fill="#28303F"/>
</svg>
