<svg width="32" height="32" viewBox="0 0 32 32" fill="none" xmlns="http://www.w3.org/2000/svg">
<path fill-rule="evenodd" clip-rule="evenodd" d="M20.5863 6.06212C21.6692 4.97929 23.4248 4.97929 24.5076 6.06212L25.9379 7.49242C27.0207 8.57524 27.0207 10.3308 25.9379 11.4137L17.8329 19.5187C17.4086 19.9429 16.8583 20.2181 16.2644 20.3029L13.2607 20.732C12.0983 20.8981 11.1019 19.9017 11.268 18.7393L11.6971 15.7356C11.7819 15.1417 12.0571 14.5914 12.4813 14.1671L20.5863 6.06212ZM23.4469 7.12278C22.9499 6.62574 22.144 6.62574 21.647 7.12278L20.474 8.29574C20.4948 8.4005 20.527 8.53051 20.5767 8.67951C20.723 9.1186 21.0235 9.72949 21.647 10.353C22.2705 10.9765 22.8814 11.277 23.3205 11.4233C23.4695 11.473 23.5995 11.5052 23.7043 11.526L24.8772 10.353C25.3743 9.85597 25.3743 9.05011 24.8772 8.55308L23.4469 7.12278ZM22.5095 12.7207C21.9356 12.4836 21.2566 12.0839 20.5863 11.4137C19.9161 10.7434 19.5164 10.0644 19.2793 9.49052L13.542 15.2278C13.3472 15.4225 13.2209 15.6752 13.182 15.9478L12.7529 18.9514C12.7283 19.1239 12.8761 19.2717 13.0486 19.2471L16.0522 18.818C16.3248 18.7791 16.5775 18.6528 16.7722 18.458L22.5095 12.7207ZM20.4364 8.02007L20.4363 8.01789L20.4363 8.01499M10 6.75C8.20507 6.75 6.75 8.20507 6.75 10V22C6.75 23.7949 8.20507 25.25 10 25.25H22C23.7949 25.25 25.25 23.7949 25.25 22V16C25.25 15.5858 25.5858 15.25 26 15.25C26.4142 15.25 26.75 15.5858 26.75 16V22C26.75 24.6234 24.6234 26.75 22 26.75H10C7.37665 26.75 5.25 24.6234 5.25 22V10C5.25 7.37665 7.37665 5.25 10 5.25H16C16.4142 5.25 16.75 5.58579 16.75 6C16.75 6.41421 16.4142 6.75 16 6.75H10Z" fill="#4B5563"/>
</svg>
