<svg width="32" height="32" viewBox="0 0 32 32" fill="none" xmlns="http://www.w3.org/2000/svg">
<rect width="32" height="32" rx="16" fill="#DC2626"/>
<circle cx="16" cy="20.1667" r="0.833333" transform="rotate(-180 16 20.1667)" fill="white"/>
<path fill-rule="evenodd" clip-rule="evenodd" d="M13.9495 7.60495C15.2177 6.85393 16.7823 6.85393 18.0505 7.60495L22.0864 9.99502C23.3527 10.7449 24.125 12.1249 24.125 13.61V18.3901C24.125 19.8751 23.3527 21.2552 22.0864 22.005L18.0505 24.3951C16.7823 25.1461 15.2177 25.1461 13.9495 24.3951L9.91358 22.005C8.64735 21.2552 7.875 19.8751 7.875 18.3901V13.61C7.875 12.1249 8.64735 10.7449 9.91358 9.99502L13.9495 7.60495ZM17.4136 8.6805C16.5382 8.16208 15.4618 8.16208 14.5864 8.6805L10.5505 11.0706C9.67316 11.5901 9.125 12.5561 9.125 13.61V18.3901C9.125 19.4439 9.67316 20.4099 10.5505 20.9295L14.5864 23.3195C15.4618 23.838 16.5382 23.838 17.4136 23.3195L21.4495 20.9295C22.3268 20.4099 22.875 19.4439 22.875 18.3901V13.61C22.875 12.5561 22.3268 11.5901 21.4495 11.0706L17.4136 8.6805ZM16 11.2083C16.3452 11.2083 16.625 11.4882 16.625 11.8333L16.625 17.6667C16.625 18.0118 16.3452 18.2917 16 18.2917C15.6548 18.2917 15.375 18.0118 15.375 17.6667L15.375 11.8333C15.375 11.4882 15.6548 11.2083 16 11.2083Z" fill="white"/>
</svg>
