<svg width="24" height="24" viewBox="0 0 24 24" fill="none" xmlns="http://www.w3.org/2000/svg">
    <path fill-rule="evenodd" clip-rule="evenodd"
        d="M14.0534 3.48832C12.8579 2.50389 11.1421 2.50389 9.94661 3.48832L4.94661 7.6055C4.1904 8.22819 3.75 9.16221 3.75 10.1503V17.9668C3.75 19.7859 5.2109 21.25 7 21.25H17C18.7891 21.25 20.25 19.7859 20.25 17.9668V10.1503C20.25 9.16221 19.8096 8.22818 19.0534 7.6055L14.0534 3.48832ZM8.99311 2.33037C10.7425 0.889878 13.2575 0.889874 15.0069 2.33037L20.0069 6.44755C21.1111 7.35681 21.75 8.71654 21.75 10.1503V17.9668C21.75 20.6027 19.6292 22.75 17 22.75H7C4.37082 22.75 2.25 20.6027 2.25 17.9668V10.1503C2.25 8.71654 2.88889 7.35681 3.99311 6.44755L8.99311 2.33037ZM7.30956 15.7071C7.47133 15.3258 7.91159 15.1478 8.29291 15.3096C9.83546 15.964 10.9622 16.2527 12.0386 16.25C13.1142 16.2473 14.2138 15.9535 15.703 15.3113C16.0834 15.1473 16.5247 15.3227 16.6887 15.703C16.8527 16.0834 16.6773 16.5247 16.297 16.6887C14.7225 17.3676 13.4079 17.7466 12.0423 17.75C10.6775 17.7534 9.33608 17.3815 7.70709 16.6904C7.32577 16.5287 7.14779 16.0884 7.30956 15.7071Z"
        fill="#374151" />
</svg>