<svg fill="none" height="24" viewBox="0 0 24 24" width="24" xmlns="http://www.w3.org/2000/svg">
    <path
        d="M11.8263 2.00997C12.9094 2.08632 13.8389 2.53871 14.6693 3.27088C16.2797 4.69065 17.9016 6.09525 19.5209 7.50364C20.5075 8.36147 21.0036 9.45926 21 10.8183C20.9937 13.168 21.0013 15.5172 20.9946 17.8669C20.9937 18.1804 20.975 18.5005 20.912 18.8054C20.5174 20.7287 19.0102 21.9963 17.1226 21.9982C13.3737 22.0015 9.62536 21.9996 5.87652 21.9977C5.67651 21.9977 5.47383 21.9949 5.27739 21.9617C3.31659 21.6278 2.00626 20.0008 2.00224 17.8911C1.99778 15.5258 2.00403 13.1604 2.00001 10.7951C1.99778 9.44503 2.49824 8.35673 3.47909 7.50506C5.12783 6.07296 6.77344 4.63659 8.41771 3.19833C8.96997 2.71559 9.59321 2.3993 10.2758 2.16978C10.9451 1.94501 11.7915 2.00713 11.8263 2.00997Z"
        fill="white" />
    <rect fill="#EE0033" height="2" rx="1" width="5" x="9" y="17" />
</svg>