<svg width="20" height="20" viewBox="0 0 20 20" fill="none" xmlns="http://www.w3.org/2000/svg">
<path fill-rule="evenodd" clip-rule="evenodd" d="M14.7299 12.1089C14.4859 11.8649 14.4859 11.4691 14.7299 11.225L15.8073 10.1476C15.8887 10.0663 15.8887 9.93437 15.8073 9.85301L14.7299 8.7756C14.4859 8.53152 14.4859 8.13579 14.7299 7.89172C14.974 7.64764 15.3697 7.64764 15.6138 7.89172L16.6912 8.96913C17.2607 9.53864 17.2607 10.462 16.6912 11.0315L15.6138 12.1089C15.3697 12.353 14.974 12.353 14.7299 12.1089Z" fill="white"/>
<path fill-rule="evenodd" clip-rule="evenodd" d="M7.88086 4.16954C7.88086 3.33757 6.95363 2.84133 6.26138 3.30282L4.59471 4.41394C4.30492 4.60713 4.13086 4.93237 4.13086 5.28066V15.1634C4.13086 15.5117 4.30492 15.8369 4.59471 16.0301L6.26138 17.1412C6.95363 17.6027 7.88086 17.1065 7.88086 16.2745V4.16954ZM9.0963 3.76368C8.82226 2.18472 6.97462 1.32502 5.56801 2.26276L3.90134 3.37387C3.2638 3.7989 2.88086 4.51443 2.88086 5.28066V15.1634C2.88086 15.9296 3.2638 16.6451 3.90134 17.0702L5.56801 18.1813C6.97462 19.119 8.82226 18.2593 9.0963 16.6803H12.6725C13.9382 16.6803 14.9642 15.6543 14.9642 14.3887C14.9642 14.0435 14.6844 13.7637 14.3392 13.7637C13.994 13.7637 13.7142 14.0435 13.7142 14.3887C13.7142 14.964 13.2478 15.4303 12.6725 15.4303H9.13086V5.01368H12.6725C13.2478 5.01368 13.7142 5.48005 13.7142 6.05535C13.7142 6.40053 13.994 6.68035 14.3392 6.68035C14.6844 6.68035 14.9642 6.40053 14.9642 6.05535C14.9642 4.7897 13.9382 3.76368 12.6725 3.76368H9.0963ZM10.3809 10.0001C10.3809 9.6549 10.6607 9.37507 11.0059 9.37507L16.0059 9.37508C16.351 9.37508 16.6309 9.6549 16.6309 10.0001C16.6309 10.3453 16.351 10.6251 16.0059 10.6251L11.0059 10.6251C10.6607 10.6251 10.3809 10.3453 10.3809 10.0001Z" fill="white"/>
</svg>
