<svg width="24" height="24" viewBox="0 0 24 24" fill="none" xmlns="http://www.w3.org/2000/svg">
<path fill-rule="evenodd" clip-rule="evenodd" d="M12 2.75C8.53357 2.75 5.75 5.49876 5.75 8.85714C5.75 9.82928 6.11707 10.9893 6.74388 12.1702C7.36544 13.3411 8.21151 14.4741 9.09441 15.3791C9.67574 15.9749 10.2583 16.4568 10.7859 16.7845C11.3305 17.1226 11.7421 17.25 12 17.25C12.2579 17.25 12.6695 17.1226 13.2141 16.7845C13.7417 16.4568 14.3243 15.9749 14.9056 15.3791C15.7885 14.4741 16.6346 13.3411 17.2561 12.1702C17.8829 10.9893 18.25 9.82928 18.25 8.85714C18.25 5.49876 15.4664 2.75 12 2.75ZM4.25 8.85714C4.25 4.64133 7.73445 1.25 12 1.25C16.2656 1.25 19.75 4.64133 19.75 8.85714C19.75 10.1694 19.2681 11.5791 18.581 12.8734C17.8887 14.1777 16.956 15.4254 15.9793 16.4265C15.3373 17.0846 14.6615 17.6513 14.0053 18.0588C13.3659 18.4558 12.668 18.75 12 18.75C11.332 18.75 10.6341 18.4558 9.99469 18.0588C9.33846 17.6513 8.66269 17.0846 8.02072 16.4265C7.04401 15.4254 6.1113 14.1777 5.41897 12.8734C4.73191 11.5791 4.25 10.1694 4.25 8.85714ZM12 7.75C11.3096 7.75 10.75 8.30964 10.75 9C10.75 9.69036 11.3096 10.25 12 10.25C12.6904 10.25 13.25 9.69036 13.25 9C13.25 8.30964 12.6904 7.75 12 7.75ZM9.25 9C9.25 7.48122 10.4812 6.25 12 6.25C13.5188 6.25 14.75 7.48122 14.75 9C14.75 10.5188 13.5188 11.75 12 11.75C10.4812 11.75 9.25 10.5188 9.25 9Z" fill="#28303F"/>
<path fill-rule="evenodd" clip-rule="evenodd" d="M9.59004 16.0967C9.64132 16.5077 9.34968 16.8825 8.93865 16.9338C7.27729 17.141 5.9006 17.5073 4.96259 17.9502C4.49226 18.1723 4.16838 18.3968 3.97206 18.5996C3.77893 18.7991 3.75 18.9319 3.75 19.0001C3.75 19.086 3.80155 19.2873 4.17149 19.5788C4.53298 19.8637 5.10255 20.153 5.87321 20.4099C7.4067 20.9211 9.5729 21.2501 12 21.2501C14.4271 21.2501 16.5933 20.9211 18.1268 20.4099C18.8975 20.153 19.467 19.8637 19.8285 19.5788C20.1985 19.2873 20.25 19.086 20.25 19.0001C20.25 18.9319 20.2211 18.7991 20.0279 18.5996C19.8316 18.3968 19.5077 18.1723 19.0374 17.9502C18.0994 17.5073 16.7227 17.141 15.0613 16.9338C14.6503 16.8825 14.3587 16.5077 14.41 16.0967C14.4612 15.6857 14.836 15.394 15.247 15.4453C17.0005 15.664 18.5467 16.0596 19.6779 16.5938C20.2422 16.8602 20.7395 17.178 21.1057 17.5563C21.4751 17.9379 21.75 18.4249 21.75 19.0001C21.75 19.7426 21.2979 20.3306 20.757 20.7569C20.2076 21.1899 19.4591 21.547 18.6011 21.833C16.8773 22.4076 14.5435 22.7501 12 22.7501C9.45654 22.7501 7.12274 22.4076 5.39887 21.833C4.54085 21.547 3.79239 21.1899 3.24303 20.7569C2.70213 20.3306 2.25 19.7426 2.25 19.0001C2.25 18.4249 2.52495 17.9379 2.89434 17.5563C3.26055 17.178 3.75785 16.8602 4.32212 16.5938C5.45331 16.0596 6.99953 15.664 8.75297 15.4453C9.16399 15.394 9.53876 15.6857 9.59004 16.0967Z" fill="#28303F"/>
</svg>

