<svg width="24" height="24" viewBox="0 0 24 24" fill="none" xmlns="http://www.w3.org/2000/svg">
<path fill-rule="evenodd" clip-rule="evenodd" d="M8.68726 2.53194C8.8531 2.91151 8.67984 3.35365 8.30028 3.51949C5.03179 4.94755 2.75 8.20821 2.75 12.0001C2.75 17.1088 6.89137 21.2501 12 21.2501C17.1086 21.2501 21.25 17.1088 21.25 12.0001C21.25 8.20821 18.9682 4.94755 15.6997 3.51949C15.3202 3.35365 15.1469 2.91151 15.3127 2.53194C15.4786 2.15238 15.9207 1.97912 16.3003 2.14496C20.0954 3.80312 22.75 7.59078 22.75 12.0001C22.75 17.9372 17.9371 22.7501 12 22.7501C6.06294 22.7501 1.25 17.9372 1.25 12.0001C1.25 7.59078 3.90459 3.80312 7.69972 2.14496C8.07929 1.97912 8.52143 2.15238 8.68726 2.53194Z" fill="#28303F"/>
<path fill-rule="evenodd" clip-rule="evenodd" d="M12 1.25C12.4142 1.25 12.75 1.58579 12.75 2V6C12.75 6.41421 12.4142 6.75 12 6.75C11.5858 6.75 11.25 6.41421 11.25 6V2C11.25 1.58579 11.5858 1.25 12 1.25Z" fill="#28303F"/>
</svg>

