<svg width="24" height="24" viewBox="0 0 24 24" fill="none" xmlns="http://www.w3.org/2000/svg">
<path fill-rule="evenodd" clip-rule="evenodd" d="M1.25 4.5C1.25 3.25736 2.25736 2.25 3.5 2.25C4.74264 2.25 5.75 3.25736 5.75 4.5V17.5389C5.75 18.4767 5.47242 19.3935 4.95224 20.1737L4.12404 21.416C3.98494 21.6247 3.75076 21.75 3.5 21.75C3.24924 21.75 3.01506 21.6247 2.87596 21.416L2.04776 20.1737C1.52758 19.3935 1.25 18.4767 1.25 17.5389V4.5ZM2.75 7.75V17.5389C2.75 18.1805 2.93992 18.8078 3.29584 19.3417L3.5 19.6479L3.70416 19.3417C4.06008 18.8078 4.25 18.1805 4.25 17.5389V7.75H2.75ZM4.25 6.25H2.75V4.5C2.75 4.08579 3.08579 3.75 3.5 3.75C3.91421 3.75 4.25 4.08579 4.25 4.5V6.25ZM7.25 6C7.25 3.92893 8.92893 2.25 11 2.25H19C21.0711 2.25 22.75 3.92893 22.75 6V18C22.75 20.0711 21.0711 21.75 19 21.75H11C8.92893 21.75 7.25 20.0711 7.25 18V6ZM11 3.75C9.75736 3.75 8.75 4.75736 8.75 6V18C8.75 19.2426 9.75736 20.25 11 20.25H19C20.2426 20.25 21.25 19.2426 21.25 18V6C21.25 4.75736 20.2426 3.75 19 3.75H11ZM11.25 8C11.25 7.58579 11.5858 7.25 12 7.25H18C18.4142 7.25 18.75 7.58579 18.75 8C18.75 8.41421 18.4142 8.75 18 8.75H12C11.5858 8.75 11.25 8.41421 11.25 8ZM11.25 12C11.25 11.5858 11.5858 11.25 12 11.25H18C18.4142 11.25 18.75 11.5858 18.75 12C18.75 12.4142 18.4142 12.75 18 12.75H12C11.5858 12.75 11.25 12.4142 11.25 12ZM11.25 16C11.25 15.5858 11.5858 15.25 12 15.25H15C15.4142 15.25 15.75 15.5858 15.75 16C15.75 16.4142 15.4142 16.75 15 16.75H12C11.5858 16.75 11.25 16.4142 11.25 16Z" fill="#28303F"/>
</svg>
