<svg width="24" height="24" viewBox="0 0 24 24" fill="none" xmlns="http://www.w3.org/2000/svg">
<path d="M3.08875 0.103671C2.99395 0.202186 2.98896 0.274776 2.98896 1.4777V2.75321L1.54188 4.61462C0.743497 5.64125 0.0698587 6.53826 0.0449092 6.61085C-0.0149697 6.78195 -0.0149697 7.26934 0.0449092 7.7671C0.129738 8.43079 0.484021 9.03743 0.978022 9.38483L1.21754 9.54556L1.24249 15.3424C1.26744 20.9578 1.27243 21.1496 1.36225 21.2533L1.45705 21.3622H6.98088C12.4548 21.3622 12.5047 21.3622 12.5945 21.2585C12.7243 21.1081 12.7143 20.8489 12.5746 20.7296C12.4798 20.6518 12.37 20.6363 11.9658 20.6363H11.4718V16.7475V12.864L13.847 12.8484L16.2222 12.8329L16.317 12.7084C16.4467 12.5425 16.4368 12.361 16.2871 12.2107L16.1673 12.081H13.5676H10.9678L10.8481 12.2107L10.7233 12.3351V16.4883V20.6363H6.35714H1.99097V15.218V9.79963H2.21552C2.80433 9.79963 3.4131 9.53001 3.83225 9.07891L4.1067 8.78855L4.38114 9.08928C5.23442 10.0226 6.68149 10.0226 7.53975 9.0841L7.81919 8.78337L8.04872 9.05817C8.33315 9.39001 8.85709 9.67519 9.34111 9.76333C10.0098 9.88259 10.7632 9.61815 11.2522 9.09447L11.5267 8.80411L11.8061 9.09447C12.6893 10.0174 14.0666 10.0226 14.9398 9.10484L15.2392 8.78855L15.5386 9.10484C16.4118 10.0226 17.809 10.0174 18.6822 9.08928L18.9517 8.80929L19.2161 9.0841C19.6503 9.53001 20.2491 9.79963 20.8129 9.79963H21.0524V10.5981C21.0524 11.0388 21.0674 11.4381 21.0824 11.4848C21.1373 11.6299 21.3718 11.7233 21.5414 11.661C21.771 11.5781 21.8009 11.4381 21.8009 10.4581V9.5663L22.0205 9.42112C22.5045 9.10484 22.8887 8.49301 23.0035 7.85525C23.0334 7.68933 23.0484 7.32638 23.0384 7.05676L23.0234 6.559L21.5414 4.64573L20.0544 2.73765V1.47251C20.0544 0.274776 20.0495 0.202186 19.9546 0.103671C19.8548 -2.9441e-05 19.79 -2.9441e-05 11.5217 -2.9441e-05C3.25342 -2.9441e-05 3.18855 -2.9441e-05 3.08875 0.103671ZM19.3459 1.64362L19.3559 2.54062H17.2152H15.0695L14.9697 2.67543C14.84 2.85172 14.84 2.95542 14.9697 3.13171L15.0695 3.26652H17.3H19.5305L20.9177 5.05535L22.2999 6.83899V7.27453C22.2999 7.91229 22.2001 8.19746 21.8608 8.55523C21.5315 8.89744 21.242 9.02188 20.783 9.02188C20.2441 9.02188 19.7251 8.68485 19.4856 8.18191C19.3708 7.93821 19.3559 7.85006 19.3559 7.32638C19.3559 6.64714 19.286 6.39826 19.0864 6.34641C18.6822 6.24271 18.5575 6.47604 18.5575 7.32638C18.5575 7.85006 18.5425 7.93821 18.4277 8.18191C18.1882 8.68485 17.6693 9.02188 17.1304 9.02188C16.6763 9.02188 16.3819 8.89744 16.0575 8.56041C15.6883 8.17672 15.6134 7.93821 15.6134 7.17083C15.6134 6.61085 15.6084 6.57455 15.4887 6.4553C15.4238 6.38271 15.309 6.32567 15.2392 6.32567C15.1693 6.32567 15.0546 6.38271 14.9897 6.4553C14.8699 6.57455 14.8649 6.61085 14.8649 7.17083C14.8649 7.90192 14.7901 8.1508 14.4558 8.5293C14.1264 8.90262 13.7921 9.04262 13.2881 9.01151C12.839 8.9804 12.4748 8.78337 12.2153 8.43079C11.9708 8.09895 11.9209 7.89155 11.9209 7.23823C11.9209 6.51752 11.8311 6.32049 11.5067 6.32567C11.4469 6.32567 11.352 6.36197 11.2972 6.40863C11.2073 6.47604 11.1924 6.56418 11.1674 7.17083C11.1475 7.6997 11.1175 7.9071 11.0377 8.09376C10.7982 8.64856 10.2642 9.02188 9.69539 9.02188C9.53073 9.02188 9.29121 8.98558 9.16147 8.93892C8.85709 8.83522 8.5078 8.50338 8.33814 8.17154C8.21838 7.93303 8.20341 7.84488 8.18844 7.21749C8.16848 6.559 8.16349 6.52789 8.04373 6.42937C7.88406 6.29975 7.72438 6.29975 7.57468 6.42419C7.45991 6.51752 7.45492 6.56418 7.42998 7.24342C7.39505 8.04191 7.33517 8.23376 7.00583 8.58115C6.69147 8.90781 6.46692 8.99595 5.95795 8.99595C5.61365 8.99595 5.46894 8.97521 5.33421 8.89744C5.01486 8.72115 4.80528 8.51375 4.66058 8.23376C4.52086 7.97451 4.51088 7.91229 4.48593 7.24342C4.46098 6.56418 4.45599 6.51752 4.34122 6.42419C4.18653 6.28938 3.97696 6.29975 3.85221 6.43974C3.7574 6.54344 3.74243 6.63677 3.72746 7.20712C3.71249 7.79303 3.69752 7.88636 3.57278 8.1508C3.02389 9.31742 1.45705 9.31742 0.908164 8.1508C0.793396 7.9071 0.768446 7.77229 0.753476 7.36267L0.733517 6.86491L1.91613 5.34052C2.5698 4.50055 3.20352 3.68651 3.32328 3.53614L3.54783 3.26652H5.74838C7.93895 3.26652 7.94893 3.26652 8.06369 3.15245C8.19343 3.02283 8.2084 2.82061 8.09862 2.67025C8.02876 2.57173 7.94893 2.56655 5.86813 2.54062L3.71249 2.5147L3.69752 1.6851C3.69253 1.234 3.69752 0.829571 3.7075 0.793276C3.72746 0.736241 5.18951 0.725871 11.5317 0.736241L19.3309 0.751796L19.3459 1.64362Z" fill="black"/>
<path d="M4.08674 12.1847C3.99193 12.2833 3.98694 12.3558 3.98694 15.0054V17.7275L4.09672 17.8053C4.19651 17.8779 4.5009 17.8882 6.41702 17.8882C8.56269 17.8882 8.63254 17.8831 8.72735 17.7845C8.82216 17.686 8.82715 17.6134 8.82715 15.0106V12.3351L8.7024 12.2107L8.58265 12.081H6.3821C4.2514 12.081 4.18154 12.0862 4.08674 12.1847ZM8.07866 15.0106V17.1623L6.39706 17.152L4.71048 17.1364L4.69551 14.995L4.68553 12.8588H6.3821H8.07866V15.0106Z" fill="black"/>
<path d="M18.4078 12.3351C17.9787 12.4751 17.5396 12.864 17.3599 13.2632C17.2352 13.5329 17.1604 13.9528 17.1604 14.3728V14.6736H15.9678C15.3091 14.6736 14.7153 14.6943 14.6454 14.7254C14.5706 14.7513 14.4907 14.8291 14.4658 14.8913C14.4159 15.0106 13.7672 23.037 13.7672 23.5192C13.7672 23.7214 13.7922 23.8043 13.872 23.8821C13.9718 23.9754 14.1365 23.9806 18.7771 23.9962C21.9856 24.0066 23.6323 23.9962 23.752 23.9599C23.8618 23.9236 23.9516 23.8562 23.9865 23.7732C24.0315 23.6695 23.9716 22.731 23.6971 19.2778C23.3728 15.2232 23.3428 14.9017 23.248 14.8032C23.1532 14.7047 23.0834 14.6995 22.2201 14.6995C21.307 14.6995 21.292 14.6995 21.1972 14.8239C21.0625 15.0002 21.0774 15.2128 21.2321 15.3424C21.3519 15.4409 21.4317 15.4513 22.0056 15.4513H22.6443L22.6692 15.6172C22.7091 15.8661 23.248 22.8036 23.248 23.0318V23.2288H18.8819C14.6355 23.2288 14.5157 23.2236 14.5157 23.1303C14.5157 23.0784 14.6504 21.3467 14.8151 19.2882C14.9798 17.2298 15.1145 15.5239 15.1145 15.498C15.1145 15.472 15.5736 15.4513 16.1324 15.4513H17.1504L17.1703 15.7935C17.1853 16.0787 17.2102 16.1565 17.3051 16.2342C17.4597 16.3691 17.6693 16.3587 17.7991 16.2135C17.8989 16.1046 17.9038 16.0372 17.9188 14.8965L17.9338 13.6988L18.0835 13.4758C18.5226 12.8329 19.4158 12.8951 19.7551 13.5899C19.83 13.7403 19.8549 13.8958 19.8549 14.2328V14.6736H19.2112C18.6024 14.6736 18.5525 14.6787 18.4278 14.7928C18.2531 14.9535 18.2382 15.218 18.4028 15.358C18.5026 15.4358 18.6124 15.4513 19.1813 15.4513H19.8449L19.8649 15.7935C19.8799 16.0787 19.9048 16.1565 19.9996 16.2342C20.1693 16.3794 20.3739 16.3587 20.5036 16.1928C20.6084 16.0528 20.6084 16.0113 20.5934 14.8291C20.5784 13.621 20.5784 13.6106 20.4387 13.2995C20.2591 12.9055 19.8898 12.5373 19.5256 12.3922C19.2461 12.2833 18.6673 12.2573 18.4078 12.3351Z" fill="black"/>
</svg>
