<svg width="24" height="24" viewBox="0 0 24 24" fill="none" xmlns="http://www.w3.org/2000/svg">
<path fill-rule="evenodd" clip-rule="evenodd" d="M2.15139 7.77807C0.130236 5.64402 1.7211 2.25 4.61067 2.25H19.3891C22.1479 2.25 23.7791 5.37776 22.0322 7.56675L11.7254 20.4824C9.78619 22.9123 5.72646 21.6253 5.72646 18.4553V12.247C5.72646 11.803 5.55504 11.3718 5.24088 11.0401L2.15139 7.77807ZM4.61067 3.75C2.95702 3.75 2.18003 5.62694 3.24047 6.74661L6.32995 10.0087C6.90443 10.6152 7.22646 11.4142 7.22646 12.247V18.4553C7.22646 20.1217 9.44558 20.9344 10.5529 19.5467L20.8598 6.63113C21.7755 5.48366 20.9672 3.75 19.3891 3.75H4.61067Z" fill="#28303F"/>
</svg>
