<svg width="24" height="24" viewBox="0 0 24 24" fill="none" xmlns="http://www.w3.org/2000/svg">
<path d="M11.3766 0.796895C9.39375 1.15783 7.90781 2.77502 7.52344 4.98752C7.48594 5.21721 7.45312 5.45158 7.45312 5.51252V5.62502H6.14531C5.42812 5.62502 4.77187 5.63908 4.69219 5.65315C4.60781 5.6719 4.50937 5.72815 4.47656 5.7844C4.38281 5.92502 1.59375 20.236 1.59375 20.5735C1.59375 20.9344 1.74375 21.5016 1.93125 21.8578C2.13281 22.2375 2.6625 22.7672 3.02812 22.9594C3.61875 23.2641 3.09375 23.25 12 23.25C20.9109 23.25 20.3859 23.2641 20.9719 22.9594C21.3422 22.7625 21.8297 22.2797 22.0453 21.886C22.2937 21.4453 22.425 20.8875 22.3922 20.4375C22.3641 20.0438 19.6172 5.94377 19.5422 5.80315C19.5141 5.75627 19.4437 5.69533 19.3781 5.6719C19.3125 5.64377 18.6516 5.62502 17.9062 5.62502H16.5562L16.5234 5.32971C16.2469 2.76565 14.4 0.848458 12.1406 0.773458C11.8453 0.764083 11.4984 0.773458 11.3766 0.796895ZM13.0875 1.61721C14.1656 1.99221 15.0469 2.87346 15.5203 4.05471C15.6797 4.45315 15.8437 5.16096 15.8437 5.4469V5.62502H12H8.15625V5.4469C8.15625 5.16096 8.32031 4.45315 8.47969 4.05471C8.93437 2.92033 9.75 2.0719 10.7531 1.68283C11.2828 1.47658 11.4328 1.45783 12.1172 1.4719C12.6281 1.48596 12.7828 1.5094 13.0875 1.61721ZM18.9984 6.43127C19.0125 6.49221 19.6312 9.62815 20.3672 13.4063C21.6187 19.7953 21.7078 20.3016 21.6937 20.6813C21.675 21.0328 21.6516 21.1313 21.5016 21.4313C21.2953 21.8531 20.9484 22.2141 20.5828 22.3922L20.3203 22.5235H12H3.67969L3.4125 22.3875C3.04219 22.2 2.7 21.8438 2.49375 21.4313C2.17031 20.7703 2.1 21.2391 3.63281 13.4063C4.36875 9.62815 4.9875 6.49221 5.00156 6.43127L5.025 6.32815H12H18.975L18.9984 6.43127Z" fill="black"/>
<path d="M7.55615 8.68594C7.42958 8.82188 7.42021 9.19688 7.52333 9.64688C7.85146 11.0391 9.0374 12.1266 10.7108 12.5672C11.0858 12.6656 11.2311 12.6797 12.0233 12.675C12.8343 12.675 12.9561 12.6609 13.3827 12.5484C14.2921 12.3047 15.1968 11.7516 15.7405 11.1C16.214 10.5375 16.5421 9.69844 16.5468 9.04219C16.5468 8.83125 16.528 8.76094 16.439 8.68125C16.3124 8.56406 16.1436 8.55 16.0124 8.64844C15.9468 8.7 15.9093 8.82656 15.8624 9.15469C15.7546 9.92344 15.4921 10.4344 14.9296 10.9594C14.4327 11.4281 13.7811 11.7563 13.0077 11.9344C12.4499 12.0609 11.4561 12.0516 10.9124 11.9109C10.1483 11.7141 9.54365 11.4047 9.07021 10.9594C8.50771 10.4344 8.24521 9.92344 8.1374 9.15469C8.09052 8.82656 8.05302 8.7 7.9874 8.64844C7.85615 8.55 7.66865 8.56406 7.55615 8.68594Z" fill="black"/>
</svg>
