<svg width="32" height="32" viewBox="0 0 32 32" fill="none" xmlns="http://www.w3.org/2000/svg">
<rect width="32" height="32" rx="16" fill="#16A34A"/>
<path fill-rule="evenodd" clip-rule="evenodd" d="M7.04175 15.9993C7.04175 11.0518 11.0525 7.04102 16.0001 7.04102C20.9476 7.04102 24.9584 11.0518 24.9584 15.9993C24.9584 20.9469 20.9476 24.9577 16.0001 24.9577C11.0525 24.9577 7.04175 20.9469 7.04175 15.9993ZM16.0001 8.29102C11.7429 8.29102 8.29175 11.7422 8.29175 15.9993C8.29175 20.2565 11.7429 23.7077 16.0001 23.7077C20.2573 23.7077 23.7084 20.2565 23.7084 15.9993C23.7084 11.7422 20.2573 8.29102 16.0001 8.29102ZM19.7171 13.006C19.9896 13.2179 20.0387 13.6106 19.8268 13.8831L16.4876 18.1763C15.9678 18.8445 14.9902 18.9313 14.3609 18.3649L12.2486 16.4639C11.9921 16.233 11.9713 15.8378 12.2022 15.5812C12.4331 15.3247 12.8283 15.3039 13.0849 15.5348L15.1971 17.4358C15.287 17.5167 15.4266 17.5043 15.5009 17.4089L18.8401 13.1156C19.052 12.8432 19.4447 12.7941 19.7171 13.006Z" fill="white"/>
</svg>
