<svg width="32" height="32" viewBox="0 0 32 32" fill="none" xmlns="http://www.w3.org/2000/svg">
<rect width="32" height="32" rx="16" fill="#D97706"/>
<ellipse cx="15.9998" cy="20.1673" rx="0.833333" ry="0.833333" fill="white"/>
<path fill-rule="evenodd" clip-rule="evenodd" d="M13.7637 9.16221C14.7415 7.44593 17.2587 7.44593 18.2365 9.16221L24.6299 20.3843C25.5981 22.0836 24.3227 24.125 22.3935 24.125H9.60668C7.67754 24.125 6.40216 22.0836 7.37028 20.3843L13.7637 9.16221ZM17.1504 9.78099C16.6521 8.90634 15.3481 8.90634 14.8498 9.78099L8.45639 21.0031C7.9899 21.8219 8.58178 22.875 9.60668 22.875H22.3935C23.4184 22.875 24.0103 21.8219 23.5438 21.0031L17.1504 9.78099ZM16.0001 12.875C16.3452 12.875 16.6251 13.1548 16.6251 13.5V17.6666C16.6251 18.0118 16.3452 18.2916 16.0001 18.2916C15.6549 18.2916 15.3751 18.0118 15.3751 17.6666V13.5C15.3751 13.1548 15.6549 12.875 16.0001 12.875Z" fill="white"/>
</svg>
