<svg width="36" height="36" viewBox="0 0 36 36" fill="none" xmlns="http://www.w3.org/2000/svg">
<rect width="36" height="36" rx="18" fill="#797979" fill-opacity="0.2"/>
<path d="M25.7695 17.6453C25.039 16.7923 24.7071 16.0531 24.7071 14.7972V14.3701C24.7071 12.7335 24.3304 11.6791 23.5115 10.6246C22.2493 8.98699 20.1244 8 18.0442 8H17.9558C15.9194 8 13.8611 8.94167 12.577 10.5128C11.7133 11.5884 11.2929 12.6882 11.2929 14.3701V14.7972C11.2929 16.0531 10.9828 16.7923 10.2305 17.6453C9.67691 18.2738 9.5 19.0815 9.5 19.9557C9.5 20.8309 9.78723 21.6598 10.3637 22.3336C11.116 23.1413 12.1785 23.6569 13.2638 23.7466C14.835 23.9258 16.4063 23.9933 18.0005 23.9933C19.5937 23.9933 21.165 23.8805 22.7372 23.7466C23.8215 23.6569 24.884 23.1413 25.6363 22.3336C26.2118 21.6598 26.5 20.8309 26.5 19.9557C26.5 19.0815 26.3231 18.2738 25.7695 17.6453Z" fill="white"/>
<path opacity="0.4" d="M20.0088 25.2283C19.5088 25.1215 16.4627 25.1215 15.9627 25.2283C15.5354 25.327 15.0732 25.5566 15.0732 26.0602C15.0981 26.5406 15.3794 26.9646 15.7689 27.2335L15.768 27.2345C16.2718 27.6273 16.8632 27.877 17.4824 27.9667C17.8123 28.012 18.1482 28.01 18.4901 27.9667C19.1083 27.877 19.6997 27.6273 20.2036 27.2345L20.2026 27.2335C20.5922 26.9646 20.8734 26.5406 20.8983 26.0602C20.8983 25.5566 20.4361 25.327 20.0088 25.2283Z" fill="white"/>
</svg>
